<svg width="97" height="14" viewBox="0 0 97 14" fill="none" xmlns="http://www.w3.org/2000/svg">
<path d="M50.3951 6.6818C51.0183 6.96096 51.5044 7.32542 51.8536 7.77518C52.2028 8.22494 52.3774 8.74449 52.3774 9.33382C52.3774 10.4918 51.9825 11.3422 51.1929 11.885C50.4032 12.4278 49.4174 12.6992 48.2355 12.6992H44.2871V1.28472H47.7682C49.0252 1.28472 50.0137 1.53027 50.7335 2.02139C51.4534 2.5125 51.8133 3.22333 51.8133 4.15386C51.8133 4.72252 51.6898 5.22138 51.4426 5.65047C51.1955 6.07954 50.8464 6.42332 50.3951 6.6818ZM46.6239 5.95289H48.0422C48.4719 5.95289 48.805 5.82623 49.0414 5.57292C49.2777 5.31961 49.3959 5.00685 49.3959 4.63463C49.3959 4.25208 49.2616 3.96 48.993 3.75838C48.7244 3.55676 48.3537 3.45596 47.881 3.45596H46.6239V5.95289ZM48.1227 10.6056C48.6707 10.6056 49.1139 10.4996 49.4523 10.2876C49.7908 10.0757 49.96 9.75773 49.96 9.33382C49.96 8.52736 49.2938 8.12413 47.9616 8.12413H46.6239V10.6056H48.1227ZM56.2452 7.00749C56.2452 5.97357 56.5165 5.00685 57.0591 4.10733C57.6017 3.20782 58.3377 2.49182 59.267 1.95935C60.1964 1.42688 61.2036 1.16064 62.2888 1.16064C63.3739 1.16064 64.3812 1.42688 65.3105 1.95935C66.2399 2.49182 66.9812 3.20782 67.5346 4.10733C68.0879 5.00685 68.3645 5.97357 68.3645 7.00749C68.3645 8.0621 68.0879 9.03399 67.5346 9.92316C66.9812 10.8123 66.2399 11.518 65.3105 12.0401C64.3812 12.5623 63.3739 12.8233 62.2888 12.8233C61.1929 12.8233 60.1829 12.5623 59.259 12.0401C58.335 11.518 57.6017 10.8123 57.0591 9.92316C56.5165 9.03399 56.2452 8.0621 56.2452 7.00749ZM58.6627 7.00749C58.6627 7.6692 58.8265 8.27922 59.1542 8.83754C59.4819 9.39586 59.9278 9.83786 60.4918 10.1635C61.0559 10.4892 61.6817 10.6521 62.3694 10.6521C63.0355 10.6521 63.6425 10.4892 64.1905 10.1635C64.7384 9.83786 65.1682 9.39844 65.4798 8.84529C65.7913 8.29214 65.9471 7.67954 65.9471 7.00749C65.9471 6.3251 65.786 5.70475 65.4636 5.14643C65.1413 4.58811 64.7035 4.1461 64.1502 3.82042C63.5969 3.49473 62.9818 3.33189 62.3049 3.33189C61.628 3.33189 61.0129 3.49473 60.4596 3.82042C59.9063 4.1461 59.4685 4.58811 59.1461 5.14643C58.8238 5.70475 58.6627 6.3251 58.6627 7.00749ZM72.9576 1.28472H76.5032C78.0181 1.28472 79.2644 1.56646 80.2421 2.12995C81.2198 2.69344 81.9316 3.42236 82.3775 4.3167C82.8234 5.21105 83.0463 6.17001 83.0463 7.1936C83.0463 8.28956 82.7777 9.25628 82.2405 10.0938C81.7033 10.9312 80.9808 11.5749 80.0729 12.0246C79.165 12.4744 78.1685 12.6992 77.0833 12.6992H72.9576V1.28472ZM76.6804 10.528C77.8945 10.528 78.8561 10.2282 79.5652 9.62849C80.2743 9.02881 80.6289 8.16549 80.6289 7.03851C80.6289 6.12865 80.4328 5.40491 80.0406 4.86727C79.6485 4.32963 79.1919 3.95741 78.6708 3.75063C78.1497 3.54384 77.6582 3.44045 77.1962 3.44045H75.2945V10.528H76.6804ZM96.6966 1.28472L92.2486 9.14772V12.6992H89.9118V9.14772L85.5443 1.28472H88.4291L91.1527 6.55773L93.8118 1.28472H96.6966Z" fill="#111111"/>
<path d="M8.09028 1.27297V3.44882H2.33683V5.88886H7.42952V8.0647H2.33683V10.5358H8.3159V12.7117H0V1.27297H8.09028ZM23.6745 1.27297V13.1779H23.6101L15.3103 5.95103L15.3586 12.7117H12.9896V0.822266H13.0863L21.3699 8.15796L21.3216 1.27297H23.6745ZM38.6141 11.5616C38.4315 11.7481 38.1065 11.9424 37.6391 12.1444C37.1718 12.3465 36.656 12.5122 36.092 12.6417C35.5279 12.7713 35.0149 12.836 34.5529 12.836C33.2958 12.836 32.1919 12.6003 31.241 12.1289C30.2902 11.6574 29.5569 11.0047 29.0412 10.1706C28.5255 9.33654 28.2676 8.3859 28.2676 7.3187C28.2676 5.98211 28.5416 4.85016 29.0895 3.92284C29.6375 2.99551 30.3735 2.30132 31.2974 1.84025C32.2214 1.37918 33.2421 1.14864 34.3595 1.14864C35.0794 1.14864 35.7562 1.22635 36.3901 1.38177C37.024 1.53718 37.5827 1.73923 38.0662 1.98789L37.3087 4.08603C36.9972 3.92025 36.5701 3.76742 36.0275 3.62754C35.4849 3.48767 35.031 3.41773 34.6657 3.41773C33.3764 3.41773 32.3907 3.72857 31.7084 4.35023C31.0262 4.9719 30.685 5.89404 30.685 7.11666C30.685 7.82122 30.8516 8.43512 31.1846 8.95835C31.5177 9.48159 31.9824 9.88309 32.5787 10.1628C33.175 10.4426 33.8545 10.5825 34.6174 10.5825C35.348 10.5825 35.8905 10.484 36.2451 10.2872V8.90396H34.1983V6.72812H38.6141V11.5616Z" fill="#EB51C2"/>
</svg>
